<?xml version="1.0" standalone="no"?>
<!DOCTYPE svg PUBLIC "-//W3C//DTD SVG 20010904//EN"
 "http://www.w3.org/TR/2001/REC-SVG-20010904/DTD/svg10.dtd">
<svg version="1.0" xmlns="http://www.w3.org/2000/svg"
 width="1000.000000pt" height="573.000000pt" viewBox="0 0 1000.000000 573.000000"
 preserveAspectRatio="xMidYMid meet">

<g transform="translate(0.000000,573.000000) scale(0.100000,-0.100000)"
fill="#000000" stroke="none">
<path d="M0 2865 l0 -2865 1991 0 1992 0 -7 68 c-22 232 -33 698 -16 654 13
-32 40 -28 41 6 1 15 1 32 0 37 -4 18 26 -19 53 -66 24 -43 25 -46 8 -62 -23
-24 -23 -160 1 -237 21 -68 74 -163 87 -155 5 3 0 28 -12 58 -27 66 -44 150
-52 251 l-6 80 25 -33 c13 -19 55 -94 92 -168 37 -74 80 -149 94 -166 23 -27
29 -30 43 -18 19 16 22 71 3 71 -7 0 -24 13 -37 28 -27 31 -87 147 -71 138 5
-4 11 1 13 10 5 26 64 -40 82 -91 14 -42 14 -42 -8 -37 -18 5 -19 3 -8 -10 7
-9 22 -18 33 -21 12 -3 18 -3 15 0 -7 7 19 33 33 33 6 0 11 9 11 20 0 11 7 23
15 26 8 4 15 12 15 20 0 8 5 14 11 14 6 0 9 9 6 20 -3 11 -1 20 4 20 5 0 9 9
9 20 0 11 6 20 14 20 9 0 12 7 9 20 -4 15 0 20 16 20 12 0 21 6 21 15 0 8 4
15 10 15 5 0 7 6 4 14 -3 8 -1 17 5 21 13 8 14 25 2 25 -5 0 -12 -9 -16 -19
-8 -26 -34 -36 -28 -10 6 21 -12 26 -21 7 -7 -16 2 34 10 56 3 9 1 16 -5 16
-6 0 -11 17 -11 40 0 22 -4 40 -9 40 -5 0 -13 10 -17 23 -4 12 -15 28 -25 35
-44 30 -71 135 -48 181 8 14 21 32 30 38 15 11 31 50 27 63 -4 10 36 50 49 50
19 0 46 59 47 102 1 32 3 35 16 24 8 -7 23 -16 32 -19 10 -3 71 -43 135 -88
65 -46 139 -97 164 -115 49 -34 125 -64 162 -64 22 0 82 39 61 40 -6 0 -14 -3
-17 -7 -4 -3 -33 -7 -65 -8 -31 -1 -47 0 -34 2 12 2 22 11 22 19 0 8 5 14 10
14 14 0 12 27 -4 73 -12 34 -12 37 4 37 13 0 16 6 12 25 -3 16 2 33 12 44 19
21 11 34 -13 21 -25 -13 -38 0 -38 37 0 26 5 32 29 37 15 3 28 12 28 20 0 9
15 19 36 25 20 6 48 20 61 33 18 17 26 19 32 10 6 -10 10 -10 20 2 17 20 71
47 81 41 4 -3 13 2 20 10 7 8 19 15 26 15 8 0 14 7 14 16 0 10 6 14 15 10 8
-3 15 -1 15 4 0 6 7 10 15 10 17 0 22 4 129 102 171 157 360 346 404 403 25
33 49 65 54 70 9 10 0 -162 -9 -177 -2 -4 3 -20 11 -36 18 -34 84 -301 97
-386 11 -82 -12 -252 -62 -444 -30 -119 -39 -171 -39 -237 0 -82 -2 -88 -46
-167 -37 -68 -41 -78 -19 -58 l25 24 -6 -35 c-3 -19 -10 -54 -15 -79 -5 -25
-11 -67 -14 -95 -10 -89 -28 -190 -36 -200 -12 -15 -41 -213 -34 -225 4 -7
696 -10 2096 -10 l2089 0 0 2865 0 2865 -5000 0 -5000 0 0 -2865z m5782 2523
c10 -10 15 -18 11 -18 -5 0 -37 28 -73 61 -63 59 -63 60 -10 18 30 -24 62 -52
72 -61z m-177 -59 c22 -41 11 -36 -14 7 -12 19 -16 32 -11 29 6 -3 17 -19 25
-36z m265 -54 c0 -12 -46 41 -61 70 -5 11 6 2 25 -20 20 -22 36 -44 36 -50z
m-165 45 l20 -25 -22 19 c-13 11 -23 24 -23 29 0 6 1 8 3 6 1 -2 11 -15 22
-29z m-328 -46 c-3 -3 -15 10 -27 28 l-23 33 28 -28 c15 -16 25 -31 22 -33z
m313 26 c6 -11 8 -20 6 -20 -3 0 -10 9 -16 20 -6 11 -8 20 -6 20 3 0 10 -9 16
-20z m198 -65 c-3 -3 -9 2 -12 12 -6 14 -5 15 5 6 7 -7 10 -15 7 -18z m-737
-12 c13 -16 12 -17 -3 -4 -10 7 -18 15 -18 17 0 8 8 3 21 -13z m23 -39 c3 -8
2 -12 -4 -9 -6 3 -10 10 -10 16 0 14 7 11 14 -7z m104 -9 c-3 -3 -9 2 -12 12
-6 14 -5 15 5 6 7 -7 10 -15 7 -18z m-150 -45 c-2 -7 -10 1 -17 16 -12 27 -11
28 4 12 10 -9 16 -21 13 -28z m166 14 c3 -8 2 -12 -4 -9 -6 3 -10 10 -10 16 0
14 7 11 14 -7z m482 -309 c-6 -16 -3 -16 52 -19 18 -1 38 -8 44 -14 7 -7 17
-12 23 -12 5 0 1 7 -9 15 -11 8 -18 17 -15 19 14 15 99 -96 148 -194 18 -36
39 -69 47 -73 8 -4 14 -13 14 -18 0 -6 7 -18 16 -26 12 -12 12 -18 3 -23 -8
-6 -4 -18 16 -44 15 -20 24 -36 20 -36 -4 0 -2 -7 5 -15 10 -12 9 -16 -4 -21
-15 -6 -14 -8 4 -24 12 -10 17 -20 11 -22 -20 -7 -12 -83 12 -118 9 -12 9 -13
-3 -2 -21 18 -35 15 -19 -5 12 -15 12 -16 -3 -11 -15 6 -15 5 0 -24 13 -23 14
-32 5 -35 -10 -4 -10 -10 1 -31 12 -24 22 -55 33 -102 12 -54 14 -152 4 -255
-9 -100 -9 -136 4 -215 23 -144 29 -242 17 -296 -6 -27 -14 -69 -16 -94 l-6
-45 14 45 c7 25 19 66 26 93 10 36 16 45 25 37 18 -15 45 14 45 48 0 21 -2 24
-10 12 -8 -13 -10 -12 -11 5 -3 47 2 203 7 239 12 77 70 156 115 156 52 0 59
-25 53 -204 -2 -89 -7 -174 -10 -191 -3 -16 -11 -83 -19 -147 -11 -92 -22
-135 -51 -202 -69 -162 -118 -214 -191 -203 l-33 6 0 -47 c0 -122 -39 -347
-77 -446 -27 -70 -205 -293 -307 -385 -15 -14 -56 -52 -89 -83 -42 -38 -64
-53 -69 -45 -4 7 -8 9 -9 5 -7 -40 -22 -58 -45 -58 -17 0 -24 -6 -24 -20 0
-14 -7 -20 -21 -20 -13 0 -23 -8 -26 -21 -3 -12 -11 -18 -19 -15 -7 3 -39 -4
-70 -14 -32 -11 -77 -20 -101 -20 -23 0 -43 -4 -43 -8 0 -4 -9 -8 -19 -8 -11
0 -19 5 -18 11 1 5 -15 11 -35 13 -21 2 -38 7 -38 12 0 4 -12 11 -27 15 -15 3
-33 14 -40 23 -11 16 -12 15 -13 -3 0 -21 -39 -45 -74 -45 -23 0 -66 37 -66
58 0 8 -6 12 -15 9 -8 -4 -17 -2 -20 3 -4 6 -1 10 5 10 8 0 9 11 5 33 -12 60
-16 69 -31 63 -9 -3 -12 -1 -9 4 13 21 -54 60 -103 60 -24 0 -72 40 -72 60 0
13 79 62 89 56 5 -4 12 -2 15 3 15 24 174 30 188 8 6 -9 10 -9 16 1 6 9 38 14
91 17 87 4 111 14 111 49 0 12 5 27 12 34 9 9 9 15 1 23 -6 6 -9 17 -6 24 5
14 -18 18 -167 30 -134 12 -149 21 -150 92 0 18 7 23 43 27 105 13 127 14 127
4 0 -5 6 -6 12 -2 32 20 307 21 320 2 6 -9 10 -10 16 -2 13 20 95 26 127 10
17 -8 42 -18 57 -21 24 -6 26 -5 21 17 -3 12 -19 37 -35 54 -33 35 -59 35 -91
3 -10 -11 -28 -19 -41 -19 -22 0 -166 41 -214 61 -29 12 -99 12 -107 0 -14
-23 -63 -21 -121 4 -42 19 -70 25 -96 22 -48 -6 -56 6 -24 38 15 14 26 21 26
15 0 -7 6 -5 15 4 8 8 15 20 15 26 0 24 69 96 93 98 14 1 24 -4 24 -11 -2 -17
33 -126 41 -131 4 -2 17 0 29 5 20 7 21 13 18 73 -2 36 -10 74 -16 84 -10 16
-10 25 4 46 25 38 22 76 -5 76 -13 0 -39 5 -59 10 -31 9 -41 19 -69 75 -31 62
-33 68 -26 143 3 42 11 93 16 112 10 33 5 525 -6 577 -2 12 -14 24 -27 28 -36
10 -71 29 -80 43 -5 7 -13 9 -19 6 -7 -5 -9 -1 -5 9 4 11 1 17 -9 17 -20 0
-74 28 -100 52 -12 10 -25 18 -30 17 -14 -4 -88 13 -99 21 -5 5 -36 11 -68 15
-31 4 -59 11 -62 15 -7 12 6 41 15 35 5 -3 11 -1 15 5 3 5 2 10 -3 10 -5 0 -9
6 -10 13 0 6 -3 26 -7 43 -5 29 -4 31 20 27 15 -3 25 -1 25 6 0 6 -11 11 -24
11 -19 0 -26 7 -31 30 -4 16 -11 32 -16 35 -5 4 -9 17 -9 31 0 15 -6 24 -15
24 -22 0 -19 23 11 83 14 29 26 71 26 95 1 28 6 42 15 42 7 0 13 5 13 10 0 6
-8 10 -18 10 -14 0 -18 9 -19 43 0 23 -4 74 -7 112 -6 65 -5 72 17 96 13 15
33 31 43 37 40 21 194 52 260 52 38 0 86 3 107 7 36 5 39 8 35 35 -4 21 -1 27
9 24 7 -3 13 0 14 7 0 9 2 9 6 0 2 -7 11 -13 18 -13 7 0 15 -5 17 -12 2 -6 13
-12 24 -14 18 -3 18 -2 1 11 -10 7 -14 16 -9 19 6 3 13 -1 16 -10 5 -14 9 -14
24 -3 14 11 15 11 5 -1 -19 -20 -17 -46 1 -31 15 13 32 -1 22 -18 -3 -5 10
-12 30 -16 26 -4 41 -2 53 9 10 9 20 13 23 10 3 -3 9 0 14 7 5 8 3 10 -6 4 -8
-5 -11 -4 -6 3 8 13 36 5 36 -10 0 -6 7 -4 17 3 9 8 24 13 35 11 10 -2 18 2
18 8 0 6 -5 8 -12 4 -6 -4 -8 -3 -5 3 7 11 33 11 60 -1 9 -5 25 -5 35 -1 36
16 44 14 25 -7 -17 -19 -15 -19 24 3 23 13 39 28 36 33 -4 5 -1 6 6 2 7 -5 10
-15 7 -23 -3 -8 -1 -11 4 -8 5 3 19 1 31 -5 17 -10 27 -7 60 15 36 23 41 24
55 10 17 -17 50 -20 59 -5 3 5 -6 12 -20 16 -14 3 -24 9 -21 11 2 3 20 -1 40
-8 23 -8 32 -16 27 -23 -6 -7 -1 -11 15 -12 13 -1 21 2 18 8 -3 5 0 17 8 26
12 15 11 16 -4 3 -10 -7 -18 -9 -18 -3 0 15 26 22 38 10 7 -7 14 -4 24 11 15
24 23 28 14 6z m61 -1 c-3 -3 -12 -4 -19 -1 -8 3 -5 6 6 6 11 1 17 -2 13 -5z
m-343 -38 c-10 -8 -21 -12 -24 -10 -5 6 21 24 34 24 6 0 1 -6 -10 -14z m-404
-11 c-21 -25 14 -45 37 -20 4 4 2 5 -4 1 -15 -8 -18 10 -3 19 6 3 10 1 10 -5
0 -7 7 -9 17 -6 13 5 11 0 -6 -18 -25 -27 -51 -34 -51 -15 0 5 -5 7 -12 3 -6
-4 -8 -3 -4 4 3 5 1 12 -6 14 -9 3 -8 9 2 21 18 20 37 23 20 2z m1074 -511 c5
-14 4 -15 -9 -4 -17 14 -19 20 -6 20 5 0 12 -7 15 -16z m-1734 -154 c0 -5 -4
-10 -10 -10 -5 0 -10 5 -10 10 0 6 5 10 10 10 6 0 10 -4 10 -10z m-523 -190
c-3 -34 -2 -38 13 -30 18 9 30 4 30 -12 0 -5 -4 -7 -8 -4 -5 3 -9 -1 -9 -9 0
-8 5 -11 10 -8 6 3 6 0 1 -10 -5 -8 -7 -41 -6 -72 3 -43 7 -55 18 -51 16 6 16
-44 -1 -57 -6 -5 -4 -7 5 -5 8 3 17 15 21 29 5 18 7 19 8 5 1 -10 9 -25 19
-32 16 -13 16 -14 -2 -8 -22 8 -38 -13 -30 -40 5 -14 3 -16 -7 -11 -8 5 -3 -3
10 -18 26 -28 21 -47 -12 -47 -12 0 -29 -5 -37 -10 -13 -8 -13 -11 -1 -19 11
-7 11 -10 -1 -17 -17 -10 -31 -54 -17 -54 6 0 5 -8 -1 -19 -5 -11 -10 -56 -10
-100 0 -73 3 -84 31 -126 17 -25 29 -52 26 -59 -3 -7 5 -31 17 -53 13 -22 25
-51 28 -64 3 -13 9 -33 13 -43 6 -12 5 -17 -2 -13 -6 4 -9 -2 -6 -16 2 -12 -5
-56 -16 -97 -11 -44 -19 -64 -20 -47 -1 32 -21 37 -21 5 0 -12 10 -32 22 -45
12 -13 16 -23 9 -23 -6 0 -14 7 -17 15 -4 8 -11 15 -16 15 -6 0 -7 -8 -3 -17
15 -35 22 -93 13 -99 -5 -3 -4 -12 3 -21 10 -12 10 -16 0 -23 -10 -5 -12 -19
-7 -45 6 -28 4 -35 -5 -29 -8 5 -9 3 -3 -7 4 -8 9 -42 9 -77 1 -35 -2 -57 -6
-49 -11 19 -27 159 -35 310 -6 125 -6 128 15 134 11 3 21 10 21 15 0 6 -11 7
-25 4 -21 -5 -25 -3 -25 16 0 13 -3 34 -7 47 -4 16 -3 22 5 18 5 -4 13 -1 16
5 4 7 4 3 2 -9 -2 -13 -1 -23 4 -23 13 0 20 42 9 61 -12 23 -12 59 1 59 6 0
10 4 10 10 0 5 -6 7 -12 5 -19 -8 -65 82 -50 97 7 7 11 26 11 42 -1 21 -3 25
-6 11 -3 -11 -9 -24 -14 -29 -15 -16 -10 151 7 239 8 44 18 98 21 120 3 22 9
42 13 45 4 3 3 39 -1 79 -5 45 -4 79 1 86 6 7 6 15 0 21 -11 11 -25 157 -17
178 11 29 18 17 14 -24z m23 0 c0 -5 -5 -10 -11 -10 -5 0 -7 5 -4 10 3 6 8 10
11 10 2 0 4 -4 4 -10z m-218 -335 c6 -11 -9 1 -34 28 -24 26 -52 47 -61 47
-17 0 -22 11 -11 23 8 8 91 -69 106 -98z m298 5 c0 -5 -2 -10 -4 -10 -3 0 -8
5 -11 10 -3 6 -1 10 4 10 6 0 11 -4 11 -10z m520 -34 c-13 -13 -35 7 -25 24 5
8 11 8 21 -1 10 -8 12 -15 4 -23z m110 -36 c0 -9 -5 -21 -12 -28 -9 -9 -9 -15
1 -24 6 -7 15 -13 19 -14 4 0 14 -3 22 -7 8 -3 26 -8 40 -10 20 -2 15 -5 -20
-13 l-45 -10 2 -42 c1 -24 -2 -40 -8 -37 -5 4 -9 1 -9 -4 0 -14 10 -14 30 -1
13 9 13 11 0 20 -10 6 -11 10 -2 10 6 0 12 7 12 15 0 8 -4 15 -10 15 -5 0 -10
5 -10 12 0 9 3 9 11 1 6 -6 19 -9 28 -6 13 4 13 3 2 -5 -7 -5 -10 -15 -7 -21
4 -6 2 -11 -4 -11 -6 0 -8 -5 -5 -10 4 -6 -1 -22 -10 -36 -9 -14 -13 -33 -10
-44 8 -24 -18 -111 -46 -156 -11 -19 -18 -41 -15 -49 3 -8 0 -14 -7 -12 -8 1
-12 -15 -12 -53 0 -44 -3 -55 -17 -58 -11 -2 -18 3 -18 12 0 9 -4 16 -10 16
-5 0 -10 -7 -10 -15 0 -8 4 -15 9 -15 5 0 11 -8 14 -19 3 -13 0 -18 -12 -15
-65 12 -71 15 -71 34 0 11 -4 20 -10 20 -17 0 -11 -38 8 -49 23 -14 -3 -14
-29 -1 -10 6 -19 20 -19 30 0 14 -7 20 -22 20 -20 0 -20 -1 -5 -18 43 -47 -2
-31 -66 24 -22 18 -45 30 -53 27 -10 -4 -14 3 -14 20 0 14 -4 29 -10 32 -5 3
-10 16 -10 28 0 12 -12 33 -25 46 -28 26 -30 39 -13 76 9 19 19 25 45 25 33 0
61 11 98 41 22 17 175 69 205 69 10 0 21 7 24 16 5 13 1 15 -18 12 -14 -3 -24
-1 -23 5 1 5 -4 12 -12 15 -10 3 -12 0 -8 -12 5 -13 3 -15 -11 -8 -9 5 -23 7
-30 5 -8 -3 -10 1 -5 14 11 32 25 45 33 32 5 -7 13 -8 24 -2 14 8 15 12 4 20
-7 6 -22 13 -33 15 -15 2 -8 9 30 28 42 21 52 32 65 67 l14 43 23 -22 c13 -12
23 -29 23 -38z m-90 20 c0 -5 -5 -10 -11 -10 -5 0 -7 5 -4 10 3 6 8 10 11 10
2 0 4 -4 4 -10z m-106 -84 c32 -11 10 -18 -33 -11 -39 6 -58 25 -25 25 9 0 12
5 8 13 -4 6 1 5 12 -4 10 -9 28 -19 38 -23z m-764 -23 c-11 -17 -11 -17 -6 0
3 10 6 24 7 30 0 9 2 9 5 0 3 -7 0 -20 -6 -30z m760 -48 c0 -8 -2 -15 -4 -15
-2 0 -6 7 -10 15 -3 8 -1 15 4 15 6 0 10 -7 10 -15z m-551 -360 c-1 -29 -1
-29 -9 -5 -4 14 -8 34 -9 45 -1 16 1 17 9 5 5 -8 9 -28 9 -45z m-135 0 c3 -8
1 -15 -4 -15 -6 0 -10 7 -10 15 0 8 2 15 4 15 2 0 6 -7 10 -15z m263 -147 c-3
-8 -6 -5 -6 6 -1 11 2 17 5 13 3 -3 4 -12 1 -19z m270 -570 c-3 -8 -6 -5 -6 6
-1 11 2 17 5 13 3 -3 4 -12 1 -19z m233 -49 c0 -54 -2 -60 -15 -49 -10 8 -15
9 -15 2 0 -15 -27 -4 -34 14 -9 25 24 94 45 94 17 0 19 -8 19 -61z m330 -26
c-11 -17 -11 -17 -6 0 3 10 7 26 7 35 1 15 2 15 6 0 2 -10 -1 -25 -7 -35z
m-553 15 c-3 -8 -6 -5 -6 6 -1 11 2 17 5 13 3 -3 4 -12 1 -19z m-248 -126 c1
-7 -3 -10 -9 -7 -5 3 -10 21 -9 38 1 31 1 31 9 7 4 -14 8 -31 9 -38z m1 -377
c8 -30 10 -72 6 -125 -7 -87 -16 -119 -40 -139 -9 -7 -16 -20 -16 -28 0 -8 -5
-11 -11 -7 -6 3 -16 0 -21 -7 -23 -33 11 228 43 329 13 40 23 35 39 -23z m957
-661 c-9 -9 -28 6 -21 18 4 6 10 6 17 -1 6 -6 8 -13 4 -17z m-577 -544 c0 -5
-4 -10 -10 -10 -5 0 -10 5 -10 10 0 6 5 10 10 10 6 0 10 -4 10 -10z"/>
<path d="M5565 4780 c3 -5 10 -10 16 -10 5 0 9 5 9 10 0 6 -7 10 -16 10 -8 0
-12 -4 -9 -10z"/>
<path d="M5704 3839 c-2 -4 -39 -7 -81 -7 -76 1 -112 -3 -182 -18 -28 -6 -33
-4 -26 7 6 11 5 12 -6 2 -19 -18 -32 -16 -25 5 5 14 4 14 -9 -2 -8 -11 -15
-22 -15 -26 0 -3 -10 -11 -21 -19 -21 -13 -22 -12 -16 23 3 22 2 34 -4 31 -5
-4 -9 -12 -9 -19 0 -8 -6 -19 -14 -25 -11 -10 -17 -8 -25 6 -8 13 -10 14 -11
3 0 -11 -3 -11 -12 -2 -16 16 -33 16 -21 0 6 -7 10 -20 10 -30 0 -15 -2 -15
-26 0 -14 10 -22 11 -18 5 5 -7 -1 -25 -14 -42 -12 -16 -18 -34 -14 -40 9 -16
78 -49 91 -44 23 8 34 -22 18 -52 -17 -33 -9 -46 30 -48 27 -2 33 -20 16 -47
-12 -19 5 -30 49 -30 33 0 34 0 28 -40 -3 -23 -1 -38 4 -34 5 3 9 -2 9 -10 0
-10 6 -13 15 -10 8 4 15 2 15 -3 0 -14 68 -41 120 -47 25 -3 38 -3 30 0 -8 4
-23 15 -33 25 -10 11 -24 16 -34 12 -10 -4 -14 -2 -9 5 3 6 2 13 -4 17 -5 3
-10 1 -10 -6 0 -10 -3 -10 -11 -2 -9 9 -6 18 8 37 21 27 36 25 25 -2 -5 -15
-4 -15 11 -3 9 7 17 17 17 21 0 12 -39 19 -46 9 -3 -6 -11 -5 -20 2 -8 6 -14
8 -14 4 0 -4 -6 -2 -14 4 -7 6 -21 9 -30 5 -9 -3 -16 -1 -16 4 0 6 10 14 22
18 20 6 20 8 5 19 -23 16 -21 41 3 67 19 20 20 20 25 2 22 -70 53 -94 127 -94
39 0 50 5 71 30 14 16 28 39 32 50 9 28 29 25 57 -8 12 -15 28 -30 33 -32 6
-3 9 -9 7 -13 -1 -5 2 -6 8 -2 5 3 16 3 23 -2 8 -5 0 -10 -23 -14 l-35 -6 36
-2 c40 -1 104 21 92 32 -3 4 -1 7 5 7 22 0 12 41 -15 67 -16 14 -27 29 -26 34
6 19 -117 54 -226 64 -67 6 -74 12 -25 20 22 4 79 16 129 26 49 10 102 19 117
19 15 0 28 5 28 11 0 5 5 7 10 4 6 -4 8 -11 5 -16 -4 -5 -2 -9 3 -9 6 0 12 7
16 15 3 8 10 15 16 15 6 0 9 -4 6 -9 -8 -12 49 -25 66 -16 7 4 4 -1 -6 -9 -17
-13 -17 -16 -4 -16 9 0 25 -3 35 -6 15 -5 15 -4 3 5 -13 9 -13 11 2 11 21 0
17 25 -8 47 -24 22 -59 30 -48 11 4 -8 3 -10 -2 -5 -5 5 -9 14 -9 20 0 7 -8
11 -18 9 -9 -2 -17 3 -17 9 0 7 -3 10 -6 6 -4 -3 -23 2 -43 12 -28 14 -40 16
-54 7 -12 -8 -20 -8 -25 0 -8 11 -91 14 -98 3z m36 -13 c0 -2 -9 -6 -20 -9
-11 -3 -18 -1 -14 4 5 9 34 13 34 5z m295 -76 c3 -5 1 -10 -4 -10 -6 0 -11 5
-11 10 0 6 2 10 4 10 3 0 8 -4 11 -10z m-300 -120 c13 -5 14 -9 5 -9 -8 0 -24
4 -35 9 -13 5 -14 9 -5 9 8 0 24 -4 35 -9z m-90 -50 c0 -7 -6 -15 -12 -17 -8
-3 -13 4 -13 17 0 13 5 20 13 18 6 -3 12 -11 12 -18z m-280 -69 c-3 -6 -14
-11 -23 -11 -13 0 -13 2 4 14 21 15 30 14 19 -3z"/>
<path d="M6048 3683 c7 -3 16 -2 19 1 4 3 -2 6 -13 5 -11 0 -14 -3 -6 -6z"/>
<path d="M6366 3608 l-35 -43 29 -3 c23 -2 32 -10 37 -30 7 -23 9 -18 14 28 3
30 9 63 13 73 16 34 -22 18 -58 -25z"/>
<path d="M5560 3441 c0 -6 4 -13 10 -16 6 -3 7 1 4 9 -7 18 -14 21 -14 7z"/>
<path d="M5590 3424 c0 -8 5 -12 10 -9 6 4 8 11 5 16 -9 14 -15 11 -15 -7z"/>
<path d="M6161 3053 c-6 -21 -10 -49 -10 -63 1 -20 3 -17 9 10 4 19 11 47 15
63 4 15 5 27 2 27 -4 0 -11 -17 -16 -37z"/>
<path d="M5180 2762 c-19 -9 -37 -25 -38 -36 -3 -16 1 -18 32 -14 24 3 36 0
36 -8 0 -7 9 -12 20 -11 11 1 20 4 20 8 0 4 9 11 20 14 11 3 27 13 35 22 14
14 14 17 -2 29 -25 19 -81 17 -123 -4z"/>
<path d="M4855 1840 c3 -5 8 -10 11 -10 2 0 4 5 4 10 0 6 -5 10 -11 10 -5 0
-7 -4 -4 -10z"/>
<path d="M5600 1809 c0 -5 5 -7 10 -4 6 3 10 8 10 11 0 2 -4 4 -10 4 -5 0 -10
-5 -10 -11z"/>
<path d="M4586 3482 c-3 -5 1 -9 9 -9 8 0 15 4 15 9 0 4 -4 8 -9 8 -6 0 -12
-4 -15 -8z"/>
<path d="M4275 3040 c-3 -5 -1 -10 4 -10 6 0 11 5 11 10 0 6 -2 10 -4 10 -3 0
-8 -4 -11 -10z"/>
<path d="M5195 1130 c-3 -6 1 -7 9 -4 18 7 21 14 7 14 -6 0 -13 -4 -16 -10z"/>
<path d="M5129 1080 l-24 -21 33 16 c31 15 41 25 23 25 -5 0 -19 -9 -32 -20z"/>
<path d="M5026 970 c-22 -11 -55 -20 -74 -20 -29 0 -33 2 -22 15 23 28 -9 17
-68 -24 -102 -69 -191 -172 -299 -345 -26 -42 -39 -74 -34 -80 16 -21 25 -123
26 -316 l1 -195 332 -3 c188 -1 332 2 332 7 0 14 -41 103 -66 143 -29 45 -55
118 -43 118 5 0 9 13 9 29 0 42 19 91 54 138 26 35 36 41 60 39 22 -2 35 -12
47 -35 20 -38 48 -71 60 -71 5 0 43 -36 84 -79 61 -64 82 -80 111 -83 39 -5
48 0 34 17 -5 6 -62 112 -125 235 -142 274 -185 339 -292 446 -46 46 -85 84
-86 84 -1 -1 -20 -10 -41 -20z"/>
</g>
</svg>
